<?xml version="1.0" encoding="UTF-8"?>
<svg id="Layer_2" data-name="Layer 2" xmlns="http://www.w3.org/2000/svg" xmlns:xlink="http://www.w3.org/1999/xlink" viewBox="0 0 1922.55 1576.5">
  <defs>
    <style>
      .cls-1, .cls-2 {
        fill: none;
      }

      .cls-3 {
        clip-path: url(#clippath);
      }

      .cls-2 {
        stroke: #15193a;
        stroke-miterlimit: 10;
      }

      .cls-4 {
        opacity: 0.88;
      }
    </style>
    <clipPath id="clippath">
      <rect class="cls-1" width="1922.55" height="1576.5"/>
    </clipPath>
  </defs>
  <g id="Layer_1-2" data-name="Layer 1">
    <g class="cls-4">
      <g class="cls-3">
        <g>
          <polygon class="cls-2" points="104.28 950.45 81.35 973.39 45.19 973.39 -24.82 1043.4 38.83 1043.4 131.8 950.45 104.28 950.45"/>
          <polygon class="cls-2" points="-24.39 909.62 11.77 909.62 81.78 839.61 18.14 839.61 -74.84 932.56 -47.32 932.56 -24.39 909.62"/>
          <polygon class="cls-2" points=".84 992.13 31.56 961.42 74.53 961.42 114.01 921.93 71.2 921.93 101.91 891.22 56.04 891.22 25.32 921.93 -17.65 921.93 -57.14 961.42 -14.32 961.42 -45.03 992.13 .84 992.13"/>
          <polygon class="cls-2" points="257.54 797.2 234.6 820.13 198.45 820.13 128.43 890.15 192.08 890.15 285.06 797.2 257.54 797.2"/>
          <polygon class="cls-2" points="128.87 756.37 165.02 756.37 235.03 686.36 171.39 686.36 78.41 779.31 105.93 779.31 128.87 756.37"/>
          <polygon class="cls-2" points="154.09 838.88 184.81 808.17 227.78 808.17 267.27 768.68 224.45 768.68 255.16 737.97 209.29 737.97 178.57 768.68 135.6 768.68 96.12 808.17 138.93 808.17 108.22 838.88 154.09 838.88"/>
          <polygon class="cls-2" points="410.79 643.95 387.85 666.88 351.7 666.88 281.69 736.9 345.33 736.9 438.31 643.95 410.79 643.95"/>
          <polygon class="cls-2" points="282.12 603.12 318.27 603.12 388.28 533.1 324.64 533.1 231.66 626.05 259.18 626.05 282.12 603.12"/>
          <polygon class="cls-2" points="307.35 685.63 338.06 654.91 381.03 654.91 420.52 615.43 377.7 615.43 408.42 584.71 362.54 584.71 331.83 615.43 288.85 615.43 249.37 654.91 292.19 654.91 261.47 685.63 307.35 685.63"/>
          <polygon class="cls-2" points="564.04 490.69 541.1 513.63 504.95 513.63 434.94 583.64 498.58 583.64 591.56 490.69 564.04 490.69"/>
          <polygon class="cls-2" points="435.37 449.86 471.52 449.86 541.54 379.85 477.89 379.85 384.91 472.8 412.43 472.8 435.37 449.86"/>
          <polygon class="cls-2" points="460.6 532.38 491.31 501.66 534.29 501.66 573.77 462.18 530.95 462.18 561.67 431.46 515.79 431.46 485.08 462.18 442.1 462.18 402.62 501.66 445.44 501.66 414.72 532.38 460.6 532.38"/>
          <polygon class="cls-2" points="717.29 337.44 694.36 360.38 658.2 360.38 588.19 430.39 651.83 430.39 744.81 337.44 717.29 337.44"/>
          <polygon class="cls-2" points="588.62 296.61 624.77 296.61 694.79 226.6 631.14 226.6 538.17 319.55 565.69 319.55 588.62 296.61"/>
          <polygon class="cls-2" points="613.85 379.12 644.57 348.41 687.54 348.41 727.02 308.92 684.21 308.92 714.92 278.21 669.05 278.21 638.33 308.92 595.36 308.92 555.87 348.41 598.69 348.41 567.98 379.12 613.85 379.12"/>
          <polygon class="cls-2" points="870.55 184.19 847.61 207.13 811.46 207.13 741.44 277.14 805.09 277.14 898.07 184.19 870.55 184.19"/>
          <polygon class="cls-2" points="741.88 143.36 778.03 143.36 848.04 73.35 784.4 73.35 691.42 166.3 718.94 166.3 741.88 143.36"/>
          <polygon class="cls-2" points="767.1 225.87 797.82 195.16 840.79 195.16 880.28 155.67 837.46 155.67 868.17 124.96 822.3 124.96 791.58 155.67 748.61 155.67 709.13 195.16 751.94 195.16 721.23 225.87 767.1 225.87"/>
          <polygon class="cls-2" points="1023.8 30.94 1000.86 53.87 964.71 53.87 894.7 123.89 958.34 123.89 1051.32 30.94 1023.8 30.94"/>
          <polygon class="cls-2" points="895.13 -9.89 931.28 -9.89 1001.29 -79.91 937.65 -79.91 844.67 13.04 872.19 13.04 895.13 -9.89"/>
          <polygon class="cls-2" points="920.36 72.62 951.07 41.9 994.04 41.9 1033.53 2.42 990.71 2.42 1021.43 -28.3 975.55 -28.3 944.84 2.42 901.86 2.42 862.38 41.9 905.2 41.9 874.48 72.62 920.36 72.62"/>
          <polygon class="cls-2" points="79.27 1256.96 56.33 1279.89 20.18 1279.89 -49.83 1349.91 13.81 1349.91 106.79 1256.96 79.27 1256.96"/>
          <polygon class="cls-2" points="-49.4 1216.13 -13.25 1216.13 56.77 1146.11 -6.88 1146.11 -99.86 1239.06 -72.34 1239.06 -49.4 1216.13"/>
          <polygon class="cls-2" points="-24.17 1298.64 6.54 1267.92 49.52 1267.92 89 1228.44 46.18 1228.44 76.9 1197.72 31.02 1197.72 .31 1228.44 -42.67 1228.44 -82.15 1267.92 -39.33 1267.92 -70.05 1298.64 -24.17 1298.64"/>
          <polygon class="cls-2" points="232.52 1103.7 209.59 1126.64 173.43 1126.64 103.42 1196.65 167.06 1196.65 260.04 1103.7 232.52 1103.7"/>
          <polygon class="cls-2" points="103.85 1062.87 140.01 1062.87 210.02 992.86 146.37 992.86 53.4 1085.81 80.92 1085.81 103.85 1062.87"/>
          <polygon class="cls-2" points="129.08 1145.39 159.8 1114.67 202.77 1114.67 242.25 1075.19 199.44 1075.19 230.15 1044.47 184.28 1044.47 153.56 1075.19 110.59 1075.19 71.1 1114.67 113.92 1114.67 83.21 1145.39 129.08 1145.39"/>
          <polygon class="cls-2" points="385.78 950.45 362.84 973.39 326.69 973.39 256.67 1043.4 320.32 1043.4 413.3 950.45 385.78 950.45"/>
          <polygon class="cls-2" points="257.11 909.62 293.26 909.62 363.27 839.61 299.63 839.61 206.65 932.56 234.17 932.56 257.11 909.62"/>
          <polygon class="cls-2" points="282.33 992.13 313.05 961.42 356.02 961.42 395.51 921.93 352.69 921.93 383.4 891.22 337.53 891.22 306.81 921.93 263.84 921.93 224.36 961.42 267.17 961.42 236.46 992.13 282.33 992.13"/>
          <polygon class="cls-2" points="539.03 797.2 516.09 820.13 479.94 820.13 409.93 890.15 473.57 890.15 566.55 797.2 539.03 797.2"/>
          <polygon class="cls-2" points="410.36 756.37 446.51 756.37 516.52 686.36 452.88 686.36 359.9 779.31 387.42 779.31 410.36 756.37"/>
          <polygon class="cls-2" points="435.59 838.88 466.3 808.17 509.27 808.17 548.76 768.68 505.94 768.68 536.66 737.97 490.78 737.97 460.07 768.68 417.09 768.68 377.61 808.17 420.43 808.17 389.71 838.88 435.59 838.88"/>
          <polygon class="cls-2" points="692.28 643.95 669.34 666.88 633.19 666.88 563.18 736.9 626.82 736.9 719.8 643.95 692.28 643.95"/>
          <polygon class="cls-2" points="563.61 603.12 599.76 603.12 669.78 533.1 606.13 533.1 513.15 626.05 540.67 626.05 563.61 603.12"/>
          <polygon class="cls-2" points="588.84 685.63 619.55 654.91 662.53 654.91 702.01 615.43 659.19 615.43 689.91 584.71 644.03 584.71 613.32 615.43 570.34 615.43 530.86 654.91 573.68 654.91 542.96 685.63 588.84 685.63"/>
          <polygon class="cls-2" points="845.53 490.69 822.6 513.63 786.44 513.63 716.43 583.64 780.07 583.64 873.05 490.69 845.53 490.69"/>
          <polygon class="cls-2" points="716.86 449.86 753.01 449.86 823.03 379.85 759.38 379.85 666.41 472.8 693.93 472.8 716.86 449.86"/>
          <polygon class="cls-2" points="742.09 532.38 772.81 501.66 815.78 501.66 855.26 462.18 812.45 462.18 843.16 431.46 797.29 431.46 766.57 462.18 723.6 462.18 684.11 501.66 726.93 501.66 696.22 532.38 742.09 532.38"/>
          <polygon class="cls-2" points="998.78 337.44 975.85 360.38 939.7 360.38 869.68 430.39 933.33 430.39 1026.31 337.44 998.78 337.44"/>
          <polygon class="cls-2" points="870.12 296.61 906.27 296.61 976.28 226.6 912.64 226.6 819.66 319.55 847.18 319.55 870.12 296.61"/>
          <polygon class="cls-2" points="895.34 379.12 926.06 348.41 969.03 348.41 1008.52 308.92 965.7 308.92 996.41 278.21 950.54 278.21 919.82 308.92 876.85 308.92 837.37 348.41 880.18 348.41 849.47 379.12 895.34 379.12"/>
          <polygon class="cls-2" points="1152.04 184.19 1129.1 207.13 1092.95 207.13 1022.94 277.14 1086.58 277.14 1179.56 184.19 1152.04 184.19"/>
          <polygon class="cls-2" points="1023.37 143.36 1059.52 143.36 1129.53 73.35 1065.89 73.35 972.91 166.3 1000.43 166.3 1023.37 143.36"/>
          <polygon class="cls-2" points="1048.6 225.87 1079.31 195.16 1122.28 195.16 1161.77 155.67 1118.95 155.67 1149.67 124.96 1103.79 124.96 1073.08 155.67 1030.1 155.67 990.62 195.16 1033.44 195.16 1002.72 225.87 1048.6 225.87"/>
          <polygon class="cls-2" points="1305.29 30.94 1282.35 53.87 1246.2 53.87 1176.19 123.89 1239.83 123.89 1332.81 30.94 1305.29 30.94"/>
          <polygon class="cls-2" points="1176.62 -9.89 1212.77 -9.89 1282.79 -79.91 1219.14 -79.91 1126.16 13.04 1153.68 13.04 1176.62 -9.89"/>
          <polygon class="cls-2" points="1201.85 72.62 1232.56 41.9 1275.54 41.9 1315.02 2.42 1272.2 2.42 1302.92 -28.3 1257.04 -28.3 1226.33 2.42 1183.35 2.42 1143.87 41.9 1186.69 41.9 1155.97 72.62 1201.85 72.62"/>
          <polygon class="cls-2" points="54.26 1563.46 31.32 1586.4 -4.83 1586.4 -74.84 1656.41 -11.2 1656.41 81.78 1563.46 54.26 1563.46"/>
          <polygon class="cls-2" points="-74.41 1522.63 -38.26 1522.63 31.75 1452.62 -31.89 1452.62 -124.87 1545.57 -97.35 1545.57 -74.41 1522.63"/>
          <polygon class="cls-2" points="-49.18 1605.14 -18.47 1574.43 24.5 1574.43 63.99 1534.94 21.17 1534.94 51.89 1504.23 6.01 1504.23 -24.7 1534.94 -67.68 1534.94 -107.16 1574.43 -64.34 1574.43 -95.06 1605.14 -49.18 1605.14"/>
          <polygon class="cls-2" points="207.51 1410.21 184.57 1433.14 148.42 1433.14 78.41 1503.16 142.05 1503.16 235.03 1410.21 207.51 1410.21"/>
          <polygon class="cls-2" points="78.84 1369.38 114.99 1369.38 185.01 1299.37 121.36 1299.37 28.38 1392.32 55.9 1392.32 78.84 1369.38"/>
          <polygon class="cls-2" points="104.07 1451.89 134.78 1421.18 177.76 1421.18 217.24 1381.69 174.42 1381.69 205.14 1350.98 159.26 1350.98 128.55 1381.69 85.57 1381.69 46.09 1421.18 88.91 1421.18 58.19 1451.89 104.07 1451.89"/>
          <polygon class="cls-2" points="360.76 1256.96 337.83 1279.89 301.67 1279.89 231.66 1349.91 295.3 1349.91 388.28 1256.96 360.76 1256.96"/>
          <polygon class="cls-2" points="232.09 1216.13 268.25 1216.13 338.26 1146.11 274.61 1146.11 181.64 1239.06 209.16 1239.06 232.09 1216.13"/>
          <polygon class="cls-2" points="257.32 1298.64 288.04 1267.92 331.01 1267.92 370.49 1228.44 327.68 1228.44 358.39 1197.72 312.52 1197.72 281.8 1228.44 238.83 1228.44 199.34 1267.92 242.16 1267.92 211.45 1298.64 257.32 1298.64"/>
          <polygon class="cls-2" points="514.02 1103.7 491.08 1126.64 454.93 1126.64 384.91 1196.65 448.56 1196.65 541.54 1103.7 514.02 1103.7"/>
          <polygon class="cls-2" points="385.35 1062.87 421.5 1062.87 491.51 992.86 427.87 992.86 334.89 1085.81 362.41 1085.81 385.35 1062.87"/>
          <polygon class="cls-2" points="410.57 1145.39 441.29 1114.67 484.26 1114.67 523.75 1075.19 480.93 1075.19 511.64 1044.47 465.77 1044.47 435.05 1075.19 392.08 1075.19 352.6 1114.67 395.41 1114.67 364.7 1145.39 410.57 1145.39"/>
          <polygon class="cls-2" points="667.27 950.45 644.33 973.39 608.18 973.39 538.17 1043.4 601.81 1043.4 694.79 950.45 667.27 950.45"/>
          <polygon class="cls-2" points="538.6 909.62 574.75 909.62 644.76 839.61 581.12 839.61 488.14 932.56 515.66 932.56 538.6 909.62"/>
          <polygon class="cls-2" points="563.83 992.13 594.54 961.42 637.51 961.42 677 921.93 634.18 921.93 664.9 891.22 619.02 891.22 588.31 921.93 545.33 921.93 505.85 961.42 548.67 961.42 517.95 992.13 563.83 992.13"/>
          <polygon class="cls-2" points="820.52 797.2 797.58 820.13 761.43 820.13 691.42 890.15 755.06 890.15 848.04 797.2 820.52 797.2"/>
          <polygon class="cls-2" points="691.85 756.37 728 756.37 798.02 686.36 734.37 686.36 641.39 779.31 668.91 779.31 691.85 756.37"/>
          <polygon class="cls-2" points="717.08 838.88 747.79 808.17 790.77 808.17 830.25 768.68 787.43 768.68 818.15 737.97 772.27 737.97 741.56 768.68 698.58 768.68 659.1 808.17 701.92 808.17 671.2 838.88 717.08 838.88"/>
          <polygon class="cls-2" points="973.77 643.95 950.84 666.88 914.68 666.88 844.67 736.9 908.31 736.9 1001.29 643.95 973.77 643.95"/>
          <polygon class="cls-2" points="845.1 603.12 881.25 603.12 951.27 533.1 887.62 533.1 794.65 626.05 822.17 626.05 845.1 603.12"/>
          <polygon class="cls-2" points="870.33 685.63 901.05 654.91 944.02 654.91 983.5 615.43 940.69 615.43 971.4 584.71 925.52 584.71 894.81 615.43 851.84 615.43 812.35 654.91 855.17 654.91 824.46 685.63 870.33 685.63"/>
          <polygon class="cls-2" points="1127.02 490.69 1104.09 513.63 1067.94 513.63 997.92 583.64 1061.57 583.64 1154.55 490.69 1127.02 490.69"/>
          <polygon class="cls-2" points="998.35 449.86 1034.51 449.86 1104.52 379.85 1040.88 379.85 947.9 472.8 975.42 472.8 998.35 449.86"/>
          <polygon class="cls-2" points="1023.58 532.38 1054.3 501.66 1097.27 501.66 1136.76 462.18 1093.94 462.18 1124.65 431.46 1078.78 431.46 1048.06 462.18 1005.09 462.18 965.61 501.66 1008.42 501.66 977.71 532.38 1023.58 532.38"/>
          <polygon class="cls-2" points="1280.28 337.44 1257.34 360.38 1221.19 360.38 1151.18 430.39 1214.82 430.39 1307.8 337.44 1280.28 337.44"/>
          <polygon class="cls-2" points="1151.61 296.61 1187.76 296.61 1257.77 226.6 1194.13 226.6 1101.15 319.55 1128.67 319.55 1151.61 296.61"/>
          <polygon class="cls-2" points="1176.84 379.12 1207.55 348.41 1250.52 348.41 1290.01 308.92 1247.19 308.92 1277.9 278.21 1232.03 278.21 1201.31 308.92 1158.34 308.92 1118.86 348.41 1161.68 348.41 1130.96 379.12 1176.84 379.12"/>
          <polygon class="cls-2" points="1433.53 184.19 1410.59 207.13 1374.44 207.13 1304.43 277.14 1368.07 277.14 1461.05 184.19 1433.53 184.19"/>
          <polygon class="cls-2" points="1304.86 143.36 1341.01 143.36 1411.03 73.35 1347.38 73.35 1254.4 166.3 1281.92 166.3 1304.86 143.36"/>
          <polygon class="cls-2" points="1330.09 225.87 1360.8 195.16 1403.78 195.16 1443.26 155.67 1400.44 155.67 1431.16 124.96 1385.28 124.96 1354.57 155.67 1311.59 155.67 1272.11 195.16 1314.93 195.16 1284.21 225.87 1330.09 225.87"/>
          <polygon class="cls-2" points="1586.78 30.94 1563.85 53.87 1527.69 53.87 1457.68 123.89 1521.32 123.89 1614.3 30.94 1586.78 30.94"/>
          <polygon class="cls-2" points="1458.11 -9.89 1494.26 -9.89 1564.28 -79.91 1500.63 -79.91 1407.65 13.04 1435.18 13.04 1458.11 -9.89"/>
          <polygon class="cls-2" points="1483.34 72.62 1514.06 41.9 1557.03 41.9 1596.51 2.42 1553.69 2.42 1584.41 -28.3 1538.53 -28.3 1507.82 2.42 1464.85 2.42 1425.36 41.9 1468.18 41.9 1437.47 72.62 1483.34 72.62"/>
          <polygon class="cls-2" points="335.75 1563.46 312.81 1586.4 276.66 1586.4 206.65 1656.41 270.29 1656.41 363.27 1563.46 335.75 1563.46"/>
          <polygon class="cls-2" points="207.08 1522.63 243.23 1522.63 313.25 1452.62 249.6 1452.62 156.62 1545.57 184.14 1545.57 207.08 1522.63"/>
          <polygon class="cls-2" points="232.31 1605.14 263.02 1574.43 306 1574.43 345.48 1534.94 302.66 1534.94 333.38 1504.23 287.5 1504.23 256.79 1534.94 213.81 1534.94 174.33 1574.43 217.15 1574.43 186.43 1605.14 232.31 1605.14"/>
          <polygon class="cls-2" points="489 1410.21 466.07 1433.14 429.91 1433.14 359.9 1503.16 423.54 1503.16 516.52 1410.21 489 1410.21"/>
          <polygon class="cls-2" points="360.33 1369.38 396.48 1369.38 466.5 1299.37 402.85 1299.37 309.88 1392.32 337.4 1392.32 360.33 1369.38"/>
          <polygon class="cls-2" points="385.56 1451.89 416.28 1421.18 459.25 1421.18 498.73 1381.69 455.92 1381.69 486.63 1350.98 440.76 1350.98 410.04 1381.69 367.07 1381.69 327.58 1421.18 370.4 1421.18 339.69 1451.89 385.56 1451.89"/>
          <polygon class="cls-2" points="642.25 1256.96 619.32 1279.89 583.17 1279.89 513.15 1349.91 576.8 1349.91 669.78 1256.96 642.25 1256.96"/>
          <polygon class="cls-2" points="513.59 1216.13 549.74 1216.13 619.75 1146.11 556.11 1146.11 463.13 1239.06 490.65 1239.06 513.59 1216.13"/>
          <polygon class="cls-2" points="538.81 1298.64 569.53 1267.92 612.5 1267.92 651.99 1228.44 609.17 1228.44 639.88 1197.72 594.01 1197.72 563.29 1228.44 520.32 1228.44 480.84 1267.92 523.65 1267.92 492.94 1298.64 538.81 1298.64"/>
          <polygon class="cls-2" points="795.51 1103.7 772.57 1126.64 736.42 1126.64 666.41 1196.65 730.05 1196.65 823.03 1103.7 795.51 1103.7"/>
          <polygon class="cls-2" points="666.84 1062.87 702.99 1062.87 773 992.86 709.36 992.86 616.38 1085.81 643.9 1085.81 666.84 1062.87"/>
          <polygon class="cls-2" points="692.07 1145.39 722.78 1114.67 765.75 1114.67 805.24 1075.19 762.42 1075.19 793.14 1044.47 747.26 1044.47 716.55 1075.19 673.57 1075.19 634.09 1114.67 676.91 1114.67 646.19 1145.39 692.07 1145.39"/>
          <polygon class="cls-2" points="948.76 950.45 925.82 973.39 889.67 973.39 819.66 1043.4 883.3 1043.4 976.28 950.45 948.76 950.45"/>
          <polygon class="cls-2" points="820.09 909.62 856.24 909.62 926.26 839.61 862.61 839.61 769.63 932.56 797.15 932.56 820.09 909.62"/>
          <polygon class="cls-2" points="845.32 992.13 876.03 961.42 919.01 961.42 958.49 921.93 915.67 921.93 946.39 891.22 900.51 891.22 869.8 921.93 826.82 921.93 787.34 961.42 830.16 961.42 799.44 992.13 845.32 992.13"/>
          <polygon class="cls-2" points="1102.01 797.2 1079.08 820.13 1042.92 820.13 972.91 890.15 1036.55 890.15 1129.53 797.2 1102.01 797.2"/>
          <polygon class="cls-2" points="973.34 756.37 1009.49 756.37 1079.51 686.36 1015.86 686.36 922.89 779.31 950.41 779.31 973.34 756.37"/>
          <polygon class="cls-2" points="998.57 838.88 1029.29 808.17 1072.26 808.17 1111.74 768.68 1068.93 768.68 1099.64 737.97 1053.76 737.97 1023.05 768.68 980.08 768.68 940.59 808.17 983.41 808.17 952.7 838.88 998.57 838.88"/>
          <polygon class="cls-2" points="1255.26 643.95 1232.33 666.88 1196.18 666.88 1126.16 736.9 1189.81 736.9 1282.79 643.95 1255.26 643.95"/>
          <polygon class="cls-2" points="1126.59 603.12 1162.75 603.12 1232.76 533.1 1169.12 533.1 1076.14 626.05 1103.66 626.05 1126.59 603.12"/>
          <polygon class="cls-2" points="1151.82 685.63 1182.54 654.91 1225.51 654.91 1265 615.43 1222.18 615.43 1252.89 584.71 1207.02 584.71 1176.3 615.43 1133.33 615.43 1093.84 654.91 1136.66 654.91 1105.95 685.63 1151.82 685.63"/>
          <polygon class="cls-2" points="1408.52 490.69 1385.58 513.63 1349.43 513.63 1279.42 583.64 1343.06 583.64 1436.04 490.69 1408.52 490.69"/>
          <polygon class="cls-2" points="1279.85 449.86 1316 449.86 1386.01 379.85 1322.37 379.85 1229.39 472.8 1256.91 472.8 1279.85 449.86"/>
          <polygon class="cls-2" points="1305.08 532.38 1335.79 501.66 1378.76 501.66 1418.25 462.18 1375.43 462.18 1406.14 431.46 1360.27 431.46 1329.55 462.18 1286.58 462.18 1247.1 501.66 1289.92 501.66 1259.2 532.38 1305.08 532.38"/>
          <polygon class="cls-2" points="1561.77 337.44 1538.83 360.38 1502.68 360.38 1432.67 430.39 1496.31 430.39 1589.29 337.44 1561.77 337.44"/>
          <polygon class="cls-2" points="1433.1 296.61 1469.25 296.61 1539.27 226.6 1475.62 226.6 1382.64 319.55 1410.16 319.55 1433.1 296.61"/>
          <polygon class="cls-2" points="1458.33 379.12 1489.04 348.41 1532.02 348.41 1571.5 308.92 1528.68 308.92 1559.4 278.21 1513.52 278.21 1482.81 308.92 1439.83 308.92 1400.35 348.41 1443.17 348.41 1412.45 379.12 1458.33 379.12"/>
          <polygon class="cls-2" points="1715.02 184.19 1692.09 207.13 1655.93 207.13 1585.92 277.14 1649.56 277.14 1742.54 184.19 1715.02 184.19"/>
          <polygon class="cls-2" points="1586.35 143.36 1622.5 143.36 1692.52 73.35 1628.87 73.35 1535.89 166.3 1563.42 166.3 1586.35 143.36"/>
          <polygon class="cls-2" points="1611.58 225.87 1642.29 195.16 1685.27 195.16 1724.75 155.67 1681.93 155.67 1712.65 124.96 1666.77 124.96 1636.06 155.67 1593.09 155.67 1553.6 195.16 1596.42 195.16 1565.7 225.87 1611.58 225.87"/>
          <polygon class="cls-2" points="1868.27 30.94 1845.34 53.87 1809.19 53.87 1739.17 123.89 1802.82 123.89 1895.8 30.94 1868.27 30.94"/>
          <polygon class="cls-2" points="1739.6 -9.89 1775.76 -9.89 1845.77 -79.91 1782.13 -79.91 1689.15 13.04 1716.67 13.04 1739.6 -9.89"/>
          <polygon class="cls-2" points="1764.83 72.62 1795.55 41.9 1838.52 41.9 1878 2.42 1835.19 2.42 1865.9 -28.3 1820.03 -28.3 1789.31 2.42 1746.34 2.42 1706.85 41.9 1749.67 41.9 1718.96 72.62 1764.83 72.62"/>
          <polygon class="cls-2" points="617.24 1563.46 594.31 1586.4 558.15 1586.4 488.14 1656.41 551.78 1656.41 644.76 1563.46 617.24 1563.46"/>
          <polygon class="cls-2" points="488.57 1522.63 524.72 1522.63 594.74 1452.62 531.09 1452.62 438.12 1545.57 465.64 1545.57 488.57 1522.63"/>
          <polygon class="cls-2" points="513.8 1605.14 544.52 1574.43 587.49 1574.43 626.97 1534.94 584.16 1534.94 614.87 1504.23 568.99 1504.23 538.28 1534.94 495.31 1534.94 455.82 1574.43 498.64 1574.43 467.93 1605.14 513.8 1605.14"/>
          <polygon class="cls-2" points="770.49 1410.21 747.56 1433.14 711.41 1433.14 641.39 1503.16 705.04 1503.16 798.02 1410.21 770.49 1410.21"/>
          <polygon class="cls-2" points="641.82 1369.38 677.98 1369.38 747.99 1299.37 684.35 1299.37 591.37 1392.32 618.89 1392.32 641.82 1369.38"/>
          <polygon class="cls-2" points="667.05 1451.89 697.77 1421.18 740.74 1421.18 780.23 1381.69 737.41 1381.69 768.12 1350.98 722.25 1350.98 691.53 1381.69 648.56 1381.69 609.08 1421.18 651.89 1421.18 621.18 1451.89 667.05 1451.89"/>
          <polygon class="cls-2" points="923.75 1256.96 900.81 1279.89 864.66 1279.89 794.65 1349.91 858.29 1349.91 951.27 1256.96 923.75 1256.96"/>
          <polygon class="cls-2" points="795.08 1216.13 831.23 1216.13 901.24 1146.11 837.6 1146.11 744.62 1239.06 772.14 1239.06 795.08 1216.13"/>
          <polygon class="cls-2" points="820.31 1298.64 851.02 1267.92 893.99 1267.92 933.48 1228.44 890.66 1228.44 921.37 1197.72 875.5 1197.72 844.78 1228.44 801.81 1228.44 762.33 1267.92 805.15 1267.92 774.43 1298.64 820.31 1298.64"/>
          <polygon class="cls-2" points="1077 1103.7 1054.06 1126.64 1017.91 1126.64 947.9 1196.65 1011.54 1196.65 1104.52 1103.7 1077 1103.7"/>
          <polygon class="cls-2" points="948.33 1062.87 984.48 1062.87 1054.5 992.86 990.85 992.86 897.87 1085.81 925.39 1085.81 948.33 1062.87"/>
          <polygon class="cls-2" points="973.56 1145.39 1004.27 1114.67 1047.25 1114.67 1086.73 1075.19 1043.91 1075.19 1074.63 1044.47 1028.75 1044.47 998.04 1075.19 955.06 1075.19 915.58 1114.67 958.4 1114.67 927.68 1145.39 973.56 1145.39"/>
          <polygon class="cls-2" points="1230.25 950.45 1207.32 973.39 1171.16 973.39 1101.15 1043.4 1164.79 1043.4 1257.77 950.45 1230.25 950.45"/>
          <polygon class="cls-2" points="1101.58 909.62 1137.73 909.62 1207.75 839.61 1144.1 839.61 1051.12 932.56 1078.65 932.56 1101.58 909.62"/>
          <polygon class="cls-2" points="1126.81 992.13 1157.53 961.42 1200.5 961.42 1239.98 921.93 1197.16 921.93 1227.88 891.22 1182 891.22 1151.29 921.93 1108.32 921.93 1068.83 961.42 1111.65 961.42 1080.94 992.13 1126.81 992.13"/>
          <polygon class="cls-2" points="1383.5 797.2 1360.57 820.13 1324.42 820.13 1254.4 890.15 1318.05 890.15 1411.03 797.2 1383.5 797.2"/>
          <polygon class="cls-2" points="1254.83 756.37 1290.99 756.37 1361 686.36 1297.36 686.36 1204.38 779.31 1231.9 779.31 1254.83 756.37"/>
          <polygon class="cls-2" points="1280.06 838.88 1310.78 808.17 1353.75 808.17 1393.24 768.68 1350.42 768.68 1381.13 737.97 1335.26 737.97 1304.54 768.68 1261.57 768.68 1222.08 808.17 1264.9 808.17 1234.19 838.88 1280.06 838.88"/>
          <polygon class="cls-2" points="1536.76 643.95 1513.82 666.88 1477.67 666.88 1407.65 736.9 1471.3 736.9 1564.28 643.95 1536.76 643.95"/>
          <polygon class="cls-2" points="1408.09 603.12 1444.24 603.12 1514.25 533.1 1450.61 533.1 1357.63 626.05 1385.15 626.05 1408.09 603.12"/>
          <polygon class="cls-2" points="1433.32 685.63 1464.03 654.91 1507 654.91 1546.49 615.43 1503.67 615.43 1534.38 584.71 1488.51 584.71 1457.79 615.43 1414.82 615.43 1375.34 654.91 1418.15 654.91 1387.44 685.63 1433.32 685.63"/>
          <polygon class="cls-2" points="1690.01 490.69 1667.07 513.63 1630.92 513.63 1560.91 583.64 1624.55 583.64 1717.53 490.69 1690.01 490.69"/>
          <polygon class="cls-2" points="1561.34 449.86 1597.49 449.86 1667.51 379.85 1603.86 379.85 1510.88 472.8 1538.4 472.8 1561.34 449.86"/>
          <polygon class="cls-2" points="1586.57 532.38 1617.28 501.66 1660.26 501.66 1699.74 462.18 1656.92 462.18 1687.64 431.46 1641.76 431.46 1611.05 462.18 1568.07 462.18 1528.59 501.66 1571.41 501.66 1540.69 532.38 1586.57 532.38"/>
          <polygon class="cls-2" points="1843.26 337.44 1820.33 360.38 1784.17 360.38 1714.16 430.39 1777.8 430.39 1870.78 337.44 1843.26 337.44"/>
          <polygon class="cls-2" points="1714.59 296.61 1750.74 296.61 1820.76 226.6 1757.11 226.6 1664.13 319.55 1691.66 319.55 1714.59 296.61"/>
          <polygon class="cls-2" points="1739.82 379.12 1770.53 348.41 1813.51 348.41 1852.99 308.92 1810.17 308.92 1840.89 278.21 1795.01 278.21 1764.3 308.92 1721.33 308.92 1681.84 348.41 1724.66 348.41 1693.94 379.12 1739.82 379.12"/>
          <polygon class="cls-2" points="1996.51 184.19 1973.58 207.13 1937.43 207.13 1867.41 277.14 1931.06 277.14 2024.04 184.19 1996.51 184.19"/>
          <polygon class="cls-2" points="1867.84 143.36 1904 143.36 1974.01 73.35 1910.37 73.35 1817.39 166.3 1844.91 166.3 1867.84 143.36"/>
          <polygon class="cls-2" points="1893.07 225.87 1923.79 195.16 1966.76 195.16 2006.24 155.67 1963.43 155.67 1994.14 124.96 1948.27 124.96 1917.55 155.67 1874.58 155.67 1835.09 195.16 1877.91 195.16 1847.2 225.87 1893.07 225.87"/>
          <polygon class="cls-2" points="898.73 1563.46 875.8 1586.4 839.65 1586.4 769.63 1656.41 833.28 1656.41 926.26 1563.46 898.73 1563.46"/>
          <polygon class="cls-2" points="770.06 1522.63 806.22 1522.63 876.23 1452.62 812.59 1452.62 719.61 1545.57 747.13 1545.57 770.06 1522.63"/>
          <polygon class="cls-2" points="795.29 1605.14 826.01 1574.43 868.98 1574.43 908.47 1534.94 865.65 1534.94 896.36 1504.23 850.49 1504.23 819.77 1534.94 776.8 1534.94 737.31 1574.43 780.13 1574.43 749.42 1605.14 795.29 1605.14"/>
          <polygon class="cls-2" points="1051.99 1410.21 1029.05 1433.14 992.9 1433.14 922.89 1503.16 986.53 1503.16 1079.51 1410.21 1051.99 1410.21"/>
          <polygon class="cls-2" points="923.32 1369.38 959.47 1369.38 1029.48 1299.37 965.84 1299.37 872.86 1392.32 900.38 1392.32 923.32 1369.38"/>
          <polygon class="cls-2" points="948.55 1451.89 979.26 1421.18 1022.23 1421.18 1061.72 1381.69 1018.9 1381.69 1049.61 1350.98 1003.74 1350.98 973.02 1381.69 930.05 1381.69 890.57 1421.18 933.39 1421.18 902.67 1451.89 948.55 1451.89"/>
          <polygon class="cls-2" points="1205.24 1256.96 1182.3 1279.89 1146.15 1279.89 1076.14 1349.91 1139.78 1349.91 1232.76 1256.96 1205.24 1256.96"/>
          <polygon class="cls-2" points="1076.57 1216.13 1112.72 1216.13 1182.74 1146.11 1119.09 1146.11 1026.11 1239.06 1053.63 1239.06 1076.57 1216.13"/>
          <polygon class="cls-2" points="1101.8 1298.64 1132.51 1267.92 1175.49 1267.92 1214.97 1228.44 1172.15 1228.44 1202.87 1197.72 1156.99 1197.72 1126.28 1228.44 1083.3 1228.44 1043.82 1267.92 1086.64 1267.92 1055.92 1298.64 1101.8 1298.64"/>
          <polygon class="cls-2" points="1358.49 1103.7 1335.56 1126.64 1299.4 1126.64 1229.39 1196.65 1293.03 1196.65 1386.01 1103.7 1358.49 1103.7"/>
          <polygon class="cls-2" points="1229.82 1062.87 1265.97 1062.87 1335.99 992.86 1272.34 992.86 1179.36 1085.81 1206.89 1085.81 1229.82 1062.87"/>
          <polygon class="cls-2" points="1255.05 1145.39 1285.77 1114.67 1328.74 1114.67 1368.22 1075.19 1325.4 1075.19 1356.12 1044.47 1310.24 1044.47 1279.53 1075.19 1236.56 1075.19 1197.07 1114.67 1239.89 1114.67 1209.17 1145.39 1255.05 1145.39"/>
          <polygon class="cls-2" points="1511.74 950.45 1488.81 973.39 1452.66 973.39 1382.64 1043.4 1446.29 1043.4 1539.27 950.45 1511.74 950.45"/>
          <polygon class="cls-2" points="1383.07 909.62 1419.23 909.62 1489.24 839.61 1425.6 839.61 1332.62 932.56 1360.14 932.56 1383.07 909.62"/>
          <polygon class="cls-2" points="1408.3 992.13 1439.02 961.42 1481.99 961.42 1521.47 921.93 1478.66 921.93 1509.37 891.22 1463.5 891.22 1432.78 921.93 1389.81 921.93 1350.32 961.42 1393.14 961.42 1362.43 992.13 1408.3 992.13"/>
          <polygon class="cls-2" points="1665 797.2 1642.06 820.13 1605.91 820.13 1535.89 890.15 1599.54 890.15 1692.52 797.2 1665 797.2"/>
          <polygon class="cls-2" points="1536.33 756.37 1572.48 756.37 1642.49 686.36 1578.85 686.36 1485.87 779.31 1513.39 779.31 1536.33 756.37"/>
          <polygon class="cls-2" points="1561.56 838.88 1592.27 808.17 1635.24 808.17 1674.73 768.68 1631.91 768.68 1662.62 737.97 1616.75 737.97 1586.03 768.68 1543.06 768.68 1503.58 808.17 1546.39 808.17 1515.68 838.88 1561.56 838.88"/>
          <polygon class="cls-2" points="1818.25 643.95 1795.31 666.88 1759.16 666.88 1689.15 736.9 1752.79 736.9 1845.77 643.95 1818.25 643.95"/>
          <polygon class="cls-2" points="1689.58 603.12 1725.73 603.12 1795.74 533.1 1732.1 533.1 1639.12 626.05 1666.64 626.05 1689.58 603.12"/>
          <polygon class="cls-2" points="1714.81 685.63 1745.52 654.91 1788.5 654.91 1827.98 615.43 1785.16 615.43 1815.88 584.71 1770 584.71 1739.29 615.43 1696.31 615.43 1656.83 654.91 1699.65 654.91 1668.93 685.63 1714.81 685.63"/>
          <polygon class="cls-2" points="1971.5 490.69 1948.57 513.63 1912.41 513.63 1842.4 583.64 1906.04 583.64 1999.02 490.69 1971.5 490.69"/>
          <polygon class="cls-2" points="1842.83 449.86 1878.98 449.86 1949 379.85 1885.35 379.85 1792.37 472.8 1819.9 472.8 1842.83 449.86"/>
          <polygon class="cls-2" points="1868.06 532.38 1898.77 501.66 1941.75 501.66 1981.23 462.18 1938.41 462.18 1969.13 431.46 1923.25 431.46 1892.54 462.18 1849.57 462.18 1810.08 501.66 1852.9 501.66 1822.18 532.38 1868.06 532.38"/>
          <polygon class="cls-2" points="1180.23 1563.46 1157.29 1586.4 1121.14 1586.4 1051.12 1656.41 1114.77 1656.41 1207.75 1563.46 1180.23 1563.46"/>
          <polygon class="cls-2" points="1051.56 1522.63 1087.71 1522.63 1157.72 1452.62 1094.08 1452.62 1001.1 1545.57 1028.62 1545.57 1051.56 1522.63"/>
          <polygon class="cls-2" points="1076.79 1605.14 1107.5 1574.43 1150.47 1574.43 1189.96 1534.94 1147.14 1534.94 1177.85 1504.23 1131.98 1504.23 1101.26 1534.94 1058.29 1534.94 1018.81 1574.43 1061.62 1574.43 1030.91 1605.14 1076.79 1605.14"/>
          <polygon class="cls-2" points="1333.48 1410.21 1310.54 1433.14 1274.39 1433.14 1204.38 1503.16 1268.02 1503.16 1361 1410.21 1333.48 1410.21"/>
          <polygon class="cls-2" points="1204.81 1369.38 1240.96 1369.38 1310.98 1299.37 1247.33 1299.37 1154.35 1392.32 1181.87 1392.32 1204.81 1369.38"/>
          <polygon class="cls-2" points="1230.04 1451.89 1260.75 1421.18 1303.73 1421.18 1343.21 1381.69 1300.39 1381.69 1331.11 1350.98 1285.23 1350.98 1254.52 1381.69 1211.54 1381.69 1172.06 1421.18 1214.88 1421.18 1184.16 1451.89 1230.04 1451.89"/>
          <polygon class="cls-2" points="1486.73 1256.96 1463.8 1279.89 1427.64 1279.89 1357.63 1349.91 1421.27 1349.91 1514.25 1256.96 1486.73 1256.96"/>
          <polygon class="cls-2" points="1358.06 1216.13 1394.21 1216.13 1464.23 1146.11 1400.58 1146.11 1307.6 1239.06 1335.13 1239.06 1358.06 1216.13"/>
          <polygon class="cls-2" points="1383.29 1298.64 1414 1267.92 1456.98 1267.92 1496.46 1228.44 1453.64 1228.44 1484.36 1197.72 1438.48 1197.72 1407.77 1228.44 1364.8 1228.44 1325.31 1267.92 1368.13 1267.92 1337.41 1298.64 1383.29 1298.64"/>
          <polygon class="cls-2" points="1639.98 1103.7 1617.05 1126.64 1580.9 1126.64 1510.88 1196.65 1574.53 1196.65 1667.51 1103.7 1639.98 1103.7"/>
          <polygon class="cls-2" points="1511.31 1062.87 1547.47 1062.87 1617.48 992.86 1553.84 992.86 1460.86 1085.81 1488.38 1085.81 1511.31 1062.87"/>
          <polygon class="cls-2" points="1536.54 1145.39 1567.26 1114.67 1610.23 1114.67 1649.71 1075.19 1606.9 1075.19 1637.61 1044.47 1591.74 1044.47 1561.02 1075.19 1518.05 1075.19 1478.56 1114.67 1521.38 1114.67 1490.67 1145.39 1536.54 1145.39"/>
          <polygon class="cls-2" points="1793.24 950.45 1770.3 973.39 1734.15 973.39 1664.13 1043.4 1727.78 1043.4 1820.76 950.45 1793.24 950.45"/>
          <polygon class="cls-2" points="1664.57 909.62 1700.72 909.62 1770.73 839.61 1707.09 839.61 1614.11 932.56 1641.63 932.56 1664.57 909.62"/>
          <polygon class="cls-2" points="1689.8 992.13 1720.51 961.42 1763.48 961.42 1802.97 921.93 1760.15 921.93 1790.86 891.22 1744.99 891.22 1714.27 921.93 1671.3 921.93 1631.82 961.42 1674.63 961.42 1643.92 992.13 1689.8 992.13"/>
          <polygon class="cls-2" points="1946.49 797.2 1923.55 820.13 1887.4 820.13 1817.39 890.15 1881.03 890.15 1974.01 797.2 1946.49 797.2"/>
          <polygon class="cls-2" points="1817.82 756.37 1853.97 756.37 1923.98 686.36 1860.34 686.36 1767.36 779.31 1794.88 779.31 1817.82 756.37"/>
          <polygon class="cls-2" points="1843.05 838.88 1873.76 808.17 1916.74 808.17 1956.22 768.68 1913.4 768.68 1944.12 737.97 1898.24 737.97 1867.53 768.68 1824.55 768.68 1785.07 808.17 1827.89 808.17 1797.17 838.88 1843.05 838.88"/>
          <polygon class="cls-2" points="1971.07 603.12 2007.22 603.12 2077.24 533.1 2013.59 533.1 1920.61 626.05 1948.14 626.05 1971.07 603.12"/>
          <polygon class="cls-2" points="1461.72 1563.46 1438.78 1586.4 1402.63 1586.4 1332.62 1656.41 1396.26 1656.41 1489.24 1563.46 1461.72 1563.46"/>
          <polygon class="cls-2" points="1333.05 1522.63 1369.2 1522.63 1439.21 1452.62 1375.57 1452.62 1282.59 1545.57 1310.11 1545.57 1333.05 1522.63"/>
          <polygon class="cls-2" points="1358.28 1605.14 1388.99 1574.43 1431.97 1574.43 1471.45 1534.94 1428.63 1534.94 1459.35 1504.23 1413.47 1504.23 1382.76 1534.94 1339.78 1534.94 1300.3 1574.43 1343.12 1574.43 1312.4 1605.14 1358.28 1605.14"/>
          <polygon class="cls-2" points="1614.97 1410.21 1592.04 1433.14 1555.88 1433.14 1485.87 1503.16 1549.51 1503.16 1642.49 1410.21 1614.97 1410.21"/>
          <polygon class="cls-2" points="1486.3 1369.38 1522.45 1369.38 1592.47 1299.37 1528.82 1299.37 1435.84 1392.32 1463.37 1392.32 1486.3 1369.38"/>
          <polygon class="cls-2" points="1511.53 1451.89 1542.24 1421.18 1585.22 1421.18 1624.7 1381.69 1581.88 1381.69 1612.6 1350.98 1566.72 1350.98 1536.01 1381.69 1493.04 1381.69 1453.55 1421.18 1496.37 1421.18 1465.65 1451.89 1511.53 1451.89"/>
          <polygon class="cls-2" points="1768.22 1256.96 1745.29 1279.89 1709.14 1279.89 1639.12 1349.91 1702.77 1349.91 1795.74 1256.96 1768.22 1256.96"/>
          <polygon class="cls-2" points="1639.55 1216.13 1675.71 1216.13 1745.72 1146.11 1682.08 1146.11 1589.1 1239.06 1616.62 1239.06 1639.55 1216.13"/>
          <polygon class="cls-2" points="1664.78 1298.64 1695.5 1267.92 1738.47 1267.92 1777.95 1228.44 1735.14 1228.44 1765.85 1197.72 1719.98 1197.72 1689.26 1228.44 1646.29 1228.44 1606.8 1267.92 1649.62 1267.92 1618.91 1298.64 1664.78 1298.64"/>
          <polygon class="cls-2" points="1921.48 1103.7 1898.54 1126.64 1862.39 1126.64 1792.37 1196.65 1856.02 1196.65 1949 1103.7 1921.48 1103.7"/>
          <polygon class="cls-2" points="1792.81 1062.87 1828.96 1062.87 1898.97 992.86 1835.33 992.86 1742.35 1085.81 1769.87 1085.81 1792.81 1062.87"/>
          <polygon class="cls-2" points="1818.03 1145.39 1848.75 1114.67 1891.72 1114.67 1931.21 1075.19 1888.39 1075.19 1919.1 1044.47 1873.23 1044.47 1842.51 1075.19 1799.54 1075.19 1760.06 1114.67 1802.87 1114.67 1772.16 1145.39 1818.03 1145.39"/>
          <polygon class="cls-2" points="1946.06 909.62 1982.21 909.62 2052.22 839.61 1988.58 839.61 1895.6 932.56 1923.12 932.56 1946.06 909.62"/>
          <polygon class="cls-2" points="1971.29 992.13 2002 961.42 2044.98 961.42 2084.46 921.93 2041.64 921.93 2072.36 891.22 2026.48 891.22 1995.77 921.93 1952.79 921.93 1913.31 961.42 1956.13 961.42 1925.41 992.13 1971.29 992.13"/>
          <polygon class="cls-2" points="1743.21 1563.46 1720.28 1586.4 1684.12 1586.4 1614.11 1656.41 1677.75 1656.41 1770.73 1563.46 1743.21 1563.46"/>
          <polygon class="cls-2" points="1614.54 1522.63 1650.69 1522.63 1720.71 1452.62 1657.06 1452.62 1564.08 1545.57 1591.61 1545.57 1614.54 1522.63"/>
          <polygon class="cls-2" points="1639.77 1605.14 1670.48 1574.43 1713.46 1574.43 1752.94 1534.94 1710.12 1534.94 1740.84 1504.23 1694.96 1504.23 1664.25 1534.94 1621.28 1534.94 1581.79 1574.43 1624.61 1574.43 1593.89 1605.14 1639.77 1605.14"/>
          <polygon class="cls-2" points="1896.46 1410.21 1873.53 1433.14 1837.38 1433.14 1767.36 1503.16 1831.01 1503.16 1923.98 1410.21 1896.46 1410.21"/>
          <polygon class="cls-2" points="1767.79 1369.38 1803.95 1369.38 1873.96 1299.37 1810.32 1299.37 1717.34 1392.32 1744.86 1392.32 1767.79 1369.38"/>
          <polygon class="cls-2" points="1793.02 1451.89 1823.74 1421.18 1866.71 1421.18 1906.19 1381.69 1863.38 1381.69 1894.09 1350.98 1848.22 1350.98 1817.5 1381.69 1774.53 1381.69 1735.04 1421.18 1777.86 1421.18 1747.15 1451.89 1793.02 1451.89"/>
          <polygon class="cls-2" points="2049.72 1256.96 2026.78 1279.89 1990.63 1279.89 1920.61 1349.91 1984.26 1349.91 2077.24 1256.96 2049.72 1256.96"/>
          <polygon class="cls-2" points="1921.05 1216.13 1957.2 1216.13 2027.21 1146.11 1963.57 1146.11 1870.59 1239.06 1898.11 1239.06 1921.05 1216.13"/>
          <polygon class="cls-2" points="1946.27 1298.64 1976.99 1267.92 2019.96 1267.92 2059.45 1228.44 2016.63 1228.44 2047.34 1197.72 2001.47 1197.72 1970.75 1228.44 1927.78 1228.44 1888.3 1267.92 1931.11 1267.92 1900.4 1298.64 1946.27 1298.64"/>
          <polygon class="cls-2" points="2024.7 1563.46 2001.77 1586.4 1965.62 1586.4 1895.6 1656.41 1959.25 1656.41 2052.22 1563.46 2024.7 1563.46"/>
          <polygon class="cls-2" points="1896.03 1522.63 1932.19 1522.63 2002.2 1452.62 1938.56 1452.62 1845.58 1545.57 1873.1 1545.57 1896.03 1522.63"/>
          <polygon class="cls-2" points="1921.26 1605.14 1951.98 1574.43 1994.95 1574.43 2034.43 1534.94 1991.62 1534.94 2022.33 1504.23 1976.46 1504.23 1945.74 1534.94 1902.77 1534.94 1863.28 1574.43 1906.1 1574.43 1875.39 1605.14 1921.26 1605.14"/>
        </g>
        <g>
          <polygon class="cls-2" points="25.87 184.19 2.94 207.13 -33.21 207.13 -103.23 277.14 -39.58 277.14 53.4 184.19 25.87 184.19"/>
          <polygon class="cls-2" points="-102.8 143.36 -66.64 143.36 3.37 73.35 -60.27 73.35 -153.25 166.3 -125.73 166.3 -102.8 143.36"/>
          <polygon class="cls-2" points="-77.57 225.87 -46.85 195.16 -3.88 195.16 35.61 155.67 -7.21 155.67 23.5 124.96 -22.37 124.96 -53.09 155.67 -96.06 155.67 -135.54 195.16 -92.73 195.16 -123.44 225.87 -77.57 225.87"/>
          <polygon class="cls-2" points="179.13 30.94 156.19 53.87 120.04 53.87 50.03 123.89 113.67 123.89 206.65 30.94 179.13 30.94"/>
          <polygon class="cls-2" points="50.46 -9.89 86.61 -9.89 156.62 -79.91 92.98 -79.91 0 13.04 27.52 13.04 50.46 -9.89"/>
          <polygon class="cls-2" points="75.69 72.62 106.4 41.9 149.37 41.9 188.86 2.42 146.04 2.42 176.75 -28.3 130.88 -28.3 100.16 2.42 57.19 2.42 17.71 41.9 60.53 41.9 29.81 72.62 75.69 72.62"/>
          <polygon class="cls-2" points=".86 490.69 -22.07 513.63 -58.23 513.63 -128.24 583.64 -64.6 583.64 28.38 490.69 .86 490.69"/>
          <polygon class="cls-2" points="-102.58 532.38 -71.86 501.66 -28.89 501.66 10.59 462.18 -32.22 462.18 -1.51 431.46 -47.39 431.46 -78.1 462.18 -121.07 462.18 -160.56 501.66 -117.74 501.66 -148.45 532.38 -102.58 532.38"/>
          <polygon class="cls-2" points="154.11 337.44 131.18 360.38 95.03 360.38 25.01 430.39 88.66 430.39 181.64 337.44 154.11 337.44"/>
          <polygon class="cls-2" points="25.44 296.61 61.6 296.61 131.61 226.6 67.97 226.6 -25.01 319.55 2.51 319.55 25.44 296.61"/>
          <polygon class="cls-2" points="50.67 379.12 81.39 348.41 124.36 348.41 163.85 308.92 121.03 308.92 151.74 278.21 105.87 278.21 75.15 308.92 32.18 308.92 -7.31 348.41 35.51 348.41 4.8 379.12 50.67 379.12"/>
          <polygon class="cls-2" points="307.37 184.19 284.43 207.13 248.28 207.13 178.26 277.14 241.91 277.14 334.89 184.19 307.37 184.19"/>
          <polygon class="cls-2" points="178.7 143.36 214.85 143.36 284.86 73.35 221.22 73.35 128.24 166.3 155.76 166.3 178.7 143.36"/>
          <polygon class="cls-2" points="203.93 225.87 234.64 195.16 277.61 195.16 317.1 155.67 274.28 155.67 304.99 124.96 259.12 124.96 228.4 155.67 185.43 155.67 145.95 195.16 188.77 195.16 158.05 225.87 203.93 225.87"/>
          <polygon class="cls-2" points="460.62 30.94 437.68 53.87 401.53 53.87 331.52 123.89 395.16 123.89 488.14 30.94 460.62 30.94"/>
          <polygon class="cls-2" points="331.95 -9.89 368.1 -9.89 438.12 -79.91 374.47 -79.91 281.49 13.04 309.01 13.04 331.95 -9.89"/>
          <polygon class="cls-2" points="357.18 72.62 387.89 41.9 430.87 41.9 470.35 2.42 427.53 2.42 458.25 -28.3 412.37 -28.3 381.66 2.42 338.68 2.42 299.2 41.9 342.02 41.9 311.3 72.62 357.18 72.62"/>
          <polygon class="cls-2" points="-24.15 797.2 -47.09 820.13 -83.24 820.13 -153.25 890.15 -89.61 890.15 3.37 797.2 -24.15 797.2"/>
          <polygon class="cls-2" points="129.1 643.95 106.17 666.88 70.01 666.88 0 736.9 63.64 736.9 156.62 643.95 129.1 643.95"/>
          <polygon class="cls-2" points=".43 603.12 36.58 603.12 106.6 533.1 42.95 533.1 -50.03 626.05 -22.5 626.05 .43 603.12"/>
          <polygon class="cls-2" points="25.66 685.63 56.38 654.91 99.35 654.91 138.83 615.43 96.01 615.43 126.73 584.71 80.85 584.71 50.14 615.43 7.17 615.43 -32.32 654.91 10.5 654.91 -20.21 685.63 25.66 685.63"/>
          <polygon class="cls-2" points="282.35 490.69 259.42 513.63 223.27 513.63 153.25 583.64 216.9 583.64 309.88 490.69 282.35 490.69"/>
          <polygon class="cls-2" points="153.68 449.86 189.84 449.86 259.85 379.85 196.21 379.85 103.23 472.8 130.75 472.8 153.68 449.86"/>
          <polygon class="cls-2" points="178.91 532.38 209.63 501.66 252.6 501.66 292.08 462.18 249.27 462.18 279.98 431.46 234.11 431.46 203.39 462.18 160.42 462.18 120.93 501.66 163.75 501.66 133.04 532.38 178.91 532.38"/>
          <polygon class="cls-2" points="435.61 337.44 412.67 360.38 376.52 360.38 306.5 430.39 370.15 430.39 463.13 337.44 435.61 337.44"/>
          <polygon class="cls-2" points="306.94 296.61 343.09 296.61 413.1 226.6 349.46 226.6 256.48 319.55 284 319.55 306.94 296.61"/>
          <polygon class="cls-2" points="332.17 379.12 362.88 348.41 405.85 348.41 445.34 308.92 402.52 308.92 433.23 278.21 387.36 278.21 356.64 308.92 313.67 308.92 274.19 348.41 317 348.41 286.29 379.12 332.17 379.12"/>
          <polygon class="cls-2" points="588.86 184.19 565.92 207.13 529.77 207.13 459.76 277.14 523.4 277.14 616.38 184.19 588.86 184.19"/>
          <polygon class="cls-2" points="460.19 143.36 496.34 143.36 566.36 73.35 502.71 73.35 409.73 166.3 437.25 166.3 460.19 143.36"/>
          <polygon class="cls-2" points="485.42 225.87 516.13 195.16 559.11 195.16 598.59 155.67 555.77 155.67 586.49 124.96 540.61 124.96 509.9 155.67 466.92 155.67 427.44 195.16 470.26 195.16 439.54 225.87 485.42 225.87"/>
          <polygon class="cls-2" points="742.11 30.94 719.18 53.87 683.02 53.87 613.01 123.89 676.65 123.89 769.63 30.94 742.11 30.94"/>
          <polygon class="cls-2" points="613.44 -9.89 649.59 -9.89 719.61 -79.91 655.96 -79.91 562.98 13.04 590.51 13.04 613.44 -9.89"/>
          <polygon class="cls-2" points="638.67 72.62 669.38 41.9 712.36 41.9 751.84 2.42 709.02 2.42 739.74 -28.3 693.86 -28.3 663.15 2.42 620.18 2.42 580.69 41.9 623.51 41.9 592.79 72.62 638.67 72.62"/>
        </g>
      </g>
    </g>
  </g>
</svg>